<svg width="24" height="24" viewBox="0 0 24 24" fill="none" xmlns="http://www.w3.org/2000/svg">
<path fill-rule="evenodd" clip-rule="evenodd" d="M15.5 4H19V6H5V4H8.5L9.5 3H14.5L15.5 4ZM8 21C6.9 21 6 20.1 6 19V7H18V19C18 20.1 17.1 21 16 21H8Z" fill="white"/>
<path d="M19 4H19.2V3.8H19V4ZM15.5 4L15.3586 4.14142L15.4172 4.2H15.5V4ZM19 6V6.2H19.2V6H19ZM5 6H4.8V6.2H5V6ZM5 4V3.8H4.8V4H5ZM8.5 4V4.2H8.58284L8.64142 4.14142L8.5 4ZM9.5 3V2.8H9.41716L9.35858 2.85858L9.5 3ZM14.5 3L14.6414 2.85858L14.5828 2.8H14.5V3ZM6 7V6.8H5.8V7H6ZM18 7H18.2V6.8H18V7ZM19 3.8H15.5V4.2H19V3.8ZM19.2 6V4H18.8V6H19.2ZM5 6.2H19V5.8H5V6.2ZM4.8 4V6H5.2V4H4.8ZM8.5 3.8H5V4.2H8.5V3.8ZM9.35858 2.85858L8.35858 3.85858L8.64142 4.14142L9.64142 3.14142L9.35858 2.85858ZM14.5 2.8H9.5V3.2H14.5V2.8ZM15.6414 3.85858L14.6414 2.85858L14.3586 3.14142L15.3586 4.14142L15.6414 3.85858ZM5.8 19C5.8 20.2105 6.78954 21.2 8 21.2V20.8C7.01046 20.8 6.2 19.9895 6.2 19H5.8ZM5.8 7V19H6.2V7H5.8ZM18 6.8H6V7.2H18V6.8ZM18.2 19V7H17.8V19H18.2ZM16 21.2C17.2105 21.2 18.2 20.2105 18.2 19H17.8C17.8 19.9895 16.9895 20.8 16 20.8V21.2ZM8 21.2H16V20.8H8V21.2Z" fill="white"/>
</svg>
